<mxfile host="app.diagrams.net" agent="Mozilla/5.0 (Windows NT 10.0; Win64; x64) AppleWebKit/537.36 (KHTML, like Gecko) Chrome/140.0.0.0 Safari/537.36 Edg/140.0.0.0" version="28.2.3">
  <diagram name="Page-1" id="FG8I5OHUJR4_K9oBTt_O">
    <mxGraphModel dx="778" dy="460" grid="1" gridSize="10" guides="1" tooltips="1" connect="1" arrows="1" fold="1" page="1" pageScale="1" pageWidth="850" pageHeight="1100" math="0" shadow="0">
      <root>
        <mxCell id="0" />
        <mxCell id="1" parent="0" />
        <mxCell id="tp9R2mp98hHx9tfO70Yq-37" value="" style="rounded=1;whiteSpace=wrap;html=1;dashed=1;dashPattern=8 8;fontStyle=1;fontSize=14;" parent="1" vertex="1">
          <mxGeometry x="100" y="540" width="810" height="150" as="geometry" />
        </mxCell>
        <mxCell id="tp9R2mp98hHx9tfO70Yq-34" value="" style="rounded=1;whiteSpace=wrap;html=1;dashed=1;dashPattern=8 8;fontStyle=1;fontSize=14;" parent="1" vertex="1">
          <mxGeometry x="100" y="280" width="810" height="260" as="geometry" />
        </mxCell>
        <mxCell id="tp9R2mp98hHx9tfO70Yq-33" value="" style="rounded=1;whiteSpace=wrap;html=1;dashed=1;dashPattern=8 8;fontStyle=1;fontSize=14;" parent="1" vertex="1">
          <mxGeometry x="100" y="50" width="810" height="230" as="geometry" />
        </mxCell>
        <mxCell id="tp9R2mp98hHx9tfO70Yq-25" value="" style="edgeStyle=orthogonalEdgeStyle;rounded=0;orthogonalLoop=1;jettySize=auto;html=1;fontStyle=1;fontSize=14;" parent="1" source="tp9R2mp98hHx9tfO70Yq-2" target="tp9R2mp98hHx9tfO70Yq-24" edge="1">
          <mxGeometry relative="1" as="geometry" />
        </mxCell>
        <mxCell id="tp9R2mp98hHx9tfO70Yq-2" value="&lt;span&gt;N-tap FIR&lt;/span&gt;" style="rounded=1;whiteSpace=wrap;html=1;fontSize=14;fontStyle=1;fillColor=#ffe6cc;strokeColor=light-dark(#000000, #996500);strokeWidth=2;" parent="1" vertex="1">
          <mxGeometry x="450" y="120" width="200" height="80" as="geometry" />
        </mxCell>
        <mxCell id="tp9R2mp98hHx9tfO70Yq-5" value="" style="shape=trapezoid;perimeter=trapezoidPerimeter;whiteSpace=wrap;html=1;fixedSize=1;rotation=90;size=30.940000000000055;fontSize=14;fontStyle=1;fillColor=#e1d5e7;strokeColor=light-dark(#000000, #9577a3);strokeWidth=2;" parent="1" vertex="1">
          <mxGeometry x="145.93" y="366.09000000000003" width="188.13" height="105.31" as="geometry" />
        </mxCell>
        <mxCell id="tp9R2mp98hHx9tfO70Yq-6" value="MLP Encoder" style="text;html=1;align=center;verticalAlign=middle;resizable=0;points=[];autosize=1;strokeColor=none;fillColor=none;fontSize=14;fontStyle=1" parent="1" vertex="1">
          <mxGeometry x="185" y="403.75" width="110" height="30" as="geometry" />
        </mxCell>
        <mxCell id="tp9R2mp98hHx9tfO70Yq-28" value="" style="edgeStyle=orthogonalEdgeStyle;rounded=0;orthogonalLoop=1;jettySize=auto;html=1;fontStyle=1;fontSize=14;" parent="1" source="tp9R2mp98hHx9tfO70Yq-10" target="tp9R2mp98hHx9tfO70Yq-27" edge="1">
          <mxGeometry relative="1" as="geometry" />
        </mxCell>
        <mxCell id="tp9R2mp98hHx9tfO70Yq-10" value="&lt;span&gt;K-tap FIR&lt;/span&gt;&lt;br&gt;&lt;font&gt;(K&amp;lt;N)&lt;/font&gt;" style="rounded=1;whiteSpace=wrap;html=1;fontSize=14;fontStyle=1;fillColor=#ffe6cc;strokeColor=light-dark(#000000, #996500);strokeWidth=2;" parent="1" vertex="1">
          <mxGeometry x="410" y="574.69" width="150" height="80.62" as="geometry" />
        </mxCell>
        <mxCell id="tp9R2mp98hHx9tfO70Yq-11" value="" style="shape=flexArrow;endArrow=classic;html=1;rounded=0;entryX=0.5;entryY=0;entryDx=0;entryDy=0;exitX=0.5;exitY=1;exitDx=0;exitDy=0;endWidth=32;endSize=10.11;width=21;fontSize=14;fontStyle=1;fillColor=#f5f5f5;strokeColor=light-dark(#000000, #959595);strokeWidth=2;" parent="1" target="tp9R2mp98hHx9tfO70Yq-10" edge="1">
          <mxGeometry width="50" height="50" relative="1" as="geometry">
            <mxPoint x="369.9999999999998" y="418.75" as="sourcePoint" />
            <mxPoint x="430" y="210" as="targetPoint" />
            <Array as="points">
              <mxPoint x="485" y="419" />
            </Array>
          </mxGeometry>
        </mxCell>
        <mxCell id="tp9R2mp98hHx9tfO70Yq-13" value="Transpose" style="edgeLabel;html=1;align=center;verticalAlign=middle;resizable=0;points=[];fontSize=14;fontStyle=1" parent="tp9R2mp98hHx9tfO70Yq-11" vertex="1" connectable="0">
          <mxGeometry x="-0.15" y="1" relative="1" as="geometry">
            <mxPoint x="-37" y="1" as="offset" />
          </mxGeometry>
        </mxCell>
        <mxCell id="tp9R2mp98hHx9tfO70Yq-14" value="" style="shape=flexArrow;endArrow=classic;html=1;rounded=0;exitX=0.5;exitY=1;exitDx=0;exitDy=0;width=22;endSize=8.74;fontSize=14;fontStyle=1;fillColor=#f5f5f5;strokeColor=light-dark(#000000, #959595);strokeWidth=2;" parent="1" source="tp9R2mp98hHx9tfO70Yq-2" edge="1">
          <mxGeometry width="50" height="50" relative="1" as="geometry">
            <mxPoint x="480" y="250" as="sourcePoint" />
            <mxPoint x="190" y="420" as="targetPoint" />
            <Array as="points">
              <mxPoint x="550" y="300" />
              <mxPoint x="380" y="300" />
              <mxPoint x="140" y="300" />
              <mxPoint x="140" y="420" />
            </Array>
          </mxGeometry>
        </mxCell>
        <mxCell id="tp9R2mp98hHx9tfO70Yq-15" value="Transpose" style="edgeLabel;html=1;align=center;verticalAlign=middle;resizable=0;points=[];fontSize=14;fontStyle=1" parent="tp9R2mp98hHx9tfO70Yq-14" vertex="1" connectable="0">
          <mxGeometry x="-0.0542" y="3" relative="1" as="geometry">
            <mxPoint x="36" y="-3" as="offset" />
          </mxGeometry>
        </mxCell>
        <mxCell id="tp9R2mp98hHx9tfO70Yq-20" style="edgeStyle=orthogonalEdgeStyle;rounded=0;orthogonalLoop=1;jettySize=auto;html=1;exitX=0.5;exitY=1;exitDx=0;exitDy=0;entryX=0;entryY=0.25;entryDx=0;entryDy=0;fontStyle=1;fontSize=14;" parent="1" source="tp9R2mp98hHx9tfO70Yq-16" target="tp9R2mp98hHx9tfO70Yq-2" edge="1">
          <mxGeometry relative="1" as="geometry" />
        </mxCell>
        <mxCell id="tp9R2mp98hHx9tfO70Yq-16" value="&lt;font&gt;Noisy Gyroscope&lt;br&gt;dataset&lt;/font&gt;" style="shape=parallelogram;perimeter=parallelogramPerimeter;whiteSpace=wrap;html=1;fixedSize=1;fontStyle=1;fontSize=14;fillColor=#f8cecc;strokeColor=light-dark(#000000, #d7817e);strokeWidth=2;" parent="1" vertex="1">
          <mxGeometry x="210" y="70" width="160" height="50" as="geometry" />
        </mxCell>
        <mxCell id="tp9R2mp98hHx9tfO70Yq-19" value="" style="edgeStyle=orthogonalEdgeStyle;rounded=0;orthogonalLoop=1;jettySize=auto;html=1;fontStyle=1;fontSize=14;" parent="1" source="tp9R2mp98hHx9tfO70Yq-18" target="tp9R2mp98hHx9tfO70Yq-10" edge="1">
          <mxGeometry relative="1" as="geometry" />
        </mxCell>
        <mxCell id="tp9R2mp98hHx9tfO70Yq-18" value="Noisy Gyroscope&lt;br&gt;data" style="shape=parallelogram;perimeter=parallelogramPerimeter;whiteSpace=wrap;html=1;fixedSize=1;fontStyle=1;fontSize=14;fillColor=#f8cecc;strokeColor=light-dark(#000000, #d7817e);strokeWidth=2;" parent="1" vertex="1">
          <mxGeometry x="160" y="590" width="160" height="50" as="geometry" />
        </mxCell>
        <mxCell id="tp9R2mp98hHx9tfO70Yq-21" value="&lt;font&gt;GT Gyroscope&lt;br&gt;dataset&lt;/font&gt;" style="shape=parallelogram;perimeter=parallelogramPerimeter;whiteSpace=wrap;html=1;fixedSize=1;fontStyle=1;fontSize=14;fillColor=#d5e8d4;strokeColor=light-dark(#000000, #446e2c);strokeWidth=2;" parent="1" vertex="1">
          <mxGeometry x="210" y="210" width="160" height="50" as="geometry" />
        </mxCell>
        <mxCell id="tp9R2mp98hHx9tfO70Yq-23" style="edgeStyle=orthogonalEdgeStyle;rounded=0;orthogonalLoop=1;jettySize=auto;html=1;exitX=0.5;exitY=0;exitDx=0;exitDy=0;entryX=0;entryY=0.75;entryDx=0;entryDy=0;fontStyle=1;fontSize=14;" parent="1" source="tp9R2mp98hHx9tfO70Yq-21" target="tp9R2mp98hHx9tfO70Yq-2" edge="1">
          <mxGeometry relative="1" as="geometry" />
        </mxCell>
        <mxCell id="tp9R2mp98hHx9tfO70Yq-31" style="edgeStyle=orthogonalEdgeStyle;rounded=0;orthogonalLoop=1;jettySize=auto;html=1;exitX=1;exitY=0.5;exitDx=0;exitDy=0;entryX=0.5;entryY=1;entryDx=0;entryDy=0;fontStyle=1;fontSize=14;" parent="1" source="tp9R2mp98hHx9tfO70Yq-24" target="tp9R2mp98hHx9tfO70Yq-10" edge="1">
          <mxGeometry relative="1" as="geometry">
            <mxPoint x="919.9999999999998" y="680" as="targetPoint" />
            <Array as="points">
              <mxPoint x="880" y="160" />
              <mxPoint x="880" y="680" />
              <mxPoint x="485" y="680" />
            </Array>
          </mxGeometry>
        </mxCell>
        <mxCell id="tp9R2mp98hHx9tfO70Yq-45" style="edgeStyle=orthogonalEdgeStyle;rounded=0;orthogonalLoop=1;jettySize=auto;html=1;exitX=0.5;exitY=1;exitDx=0;exitDy=0;entryX=0.5;entryY=0;entryDx=0;entryDy=0;" parent="1" source="tp9R2mp98hHx9tfO70Yq-24" target="tp9R2mp98hHx9tfO70Yq-43" edge="1">
          <mxGeometry relative="1" as="geometry" />
        </mxCell>
        <mxCell id="tp9R2mp98hHx9tfO70Yq-24" value="&lt;font&gt;Filtered Output&lt;br&gt;of Teacher&lt;/font&gt;" style="shape=parallelogram;perimeter=parallelogramPerimeter;whiteSpace=wrap;html=1;fixedSize=1;fontStyle=1;fontSize=14;fillColor=#dae8fc;strokeColor=light-dark(#000000, #5c79a3);strokeWidth=2;" parent="1" vertex="1">
          <mxGeometry x="670" y="135" width="160" height="50" as="geometry" />
        </mxCell>
        <mxCell id="tp9R2mp98hHx9tfO70Yq-46" style="edgeStyle=orthogonalEdgeStyle;rounded=0;orthogonalLoop=1;jettySize=auto;html=1;exitX=0.5;exitY=0;exitDx=0;exitDy=0;entryX=0.5;entryY=1;entryDx=0;entryDy=0;" parent="1" source="tp9R2mp98hHx9tfO70Yq-27" target="tp9R2mp98hHx9tfO70Yq-43" edge="1">
          <mxGeometry relative="1" as="geometry" />
        </mxCell>
        <mxCell id="tp9R2mp98hHx9tfO70Yq-27" value="Filtered Output&lt;br&gt;of Student" style="shape=parallelogram;perimeter=parallelogramPerimeter;whiteSpace=wrap;html=1;fixedSize=1;fontStyle=1;fontSize=14;fillColor=#dae8fc;strokeColor=light-dark(#000000, #5c79a3);strokeWidth=2;" parent="1" vertex="1">
          <mxGeometry x="670" y="590" width="160" height="50" as="geometry" />
        </mxCell>
        <mxCell id="tp9R2mp98hHx9tfO70Yq-32" value="" style="rounded=0;whiteSpace=wrap;html=1;rotation=90;fontStyle=1;fontSize=14;fillColor=#fff2cc;strokeColor=light-dark(#000000, #6d5100);strokeWidth=2;" parent="1" vertex="1">
          <mxGeometry x="268.44" y="382.19" width="126.88" height="76.25" as="geometry" />
        </mxCell>
        <mxCell id="tp9R2mp98hHx9tfO70Yq-38" value="&lt;span&gt;&lt;font style=&quot;font-size: 24px;&quot;&gt;Stage 1&lt;/font&gt;&lt;/span&gt;" style="text;html=1;align=center;verticalAlign=middle;resizable=0;points=[];autosize=1;strokeColor=none;fillColor=none;fontStyle=1;fontSize=14;" parent="1" vertex="1">
          <mxGeometry x="760" y="75" width="110" height="40" as="geometry" />
        </mxCell>
        <mxCell id="tp9R2mp98hHx9tfO70Yq-39" value="&lt;span&gt;&lt;font style=&quot;font-size: 24px;&quot;&gt;Stage 2&lt;/font&gt;&lt;/span&gt;" style="text;html=1;align=center;verticalAlign=middle;resizable=0;points=[];autosize=1;strokeColor=none;fillColor=none;fontStyle=1;fontSize=14;" parent="1" vertex="1">
          <mxGeometry x="760" y="290" width="110" height="40" as="geometry" />
        </mxCell>
        <mxCell id="tp9R2mp98hHx9tfO70Yq-40" value="&lt;span&gt;&lt;font style=&quot;font-size: 24px;&quot;&gt;Stage 3&lt;/font&gt;&lt;/span&gt;" style="text;html=1;align=center;verticalAlign=middle;resizable=0;points=[];autosize=1;strokeColor=none;fillColor=none;fontStyle=1;fontSize=14;" parent="1" vertex="1">
          <mxGeometry x="760" y="540" width="110" height="40" as="geometry" />
        </mxCell>
        <mxCell id="tp9R2mp98hHx9tfO70Yq-41" value="&lt;b&gt;&lt;font&gt;Compact&lt;br&gt;Latent&lt;br&gt;Vector&lt;/font&gt;&lt;/b&gt;" style="text;html=1;align=center;verticalAlign=middle;resizable=0;points=[];autosize=1;strokeColor=none;fillColor=none;fontSize=14;" parent="1" vertex="1">
          <mxGeometry x="291.88000000000005" y="393.44" width="80" height="60" as="geometry" />
        </mxCell>
        <mxCell id="tp9R2mp98hHx9tfO70Yq-47" style="edgeStyle=orthogonalEdgeStyle;rounded=0;orthogonalLoop=1;jettySize=auto;html=1;exitX=0.25;exitY=1;exitDx=0;exitDy=0;entryX=1;entryY=0.5;entryDx=0;entryDy=0;" parent="1" source="tp9R2mp98hHx9tfO70Yq-43" target="tp9R2mp98hHx9tfO70Yq-5" edge="1">
          <mxGeometry relative="1" as="geometry">
            <Array as="points">
              <mxPoint x="710" y="520" />
              <mxPoint x="240" y="520" />
            </Array>
          </mxGeometry>
        </mxCell>
        <mxCell id="tp9R2mp98hHx9tfO70Yq-49" value="&lt;b&gt;&lt;font style=&quot;font-size: 14px;&quot;&gt;SGD Backprop&lt;/font&gt;&lt;/b&gt;" style="edgeLabel;html=1;align=center;verticalAlign=middle;resizable=0;points=[];" parent="tp9R2mp98hHx9tfO70Yq-47" vertex="1" connectable="0">
          <mxGeometry x="-0.4059" y="1" relative="1" as="geometry">
            <mxPoint x="-7" y="-11" as="offset" />
          </mxGeometry>
        </mxCell>
        <mxCell id="tp9R2mp98hHx9tfO70Yq-43" value="Distillation Loss" style="shape=parallelogram;perimeter=parallelogramPerimeter;whiteSpace=wrap;html=1;fixedSize=1;fontStyle=1;fontSize=14;fillColor=#bac8d3;strokeColor=#23445d;strokeWidth=2;" parent="1" vertex="1">
          <mxGeometry x="670" y="366.09" width="160" height="50" as="geometry" />
        </mxCell>
      </root>
    </mxGraphModel>
  </diagram>
</mxfile>
